<svg width="20" height="20" viewBox="0 0 20 20" fill="none" xmlns="http://www.w3.org/2000/svg">
<g clip-path="url(#clip0_92_401)">
<path d="M5.00006 8.33341H7.50006M5.63339 18.3334H14.3667C16.6667 18.3334 17.5834 16.9251 17.6917 15.2084L18.1251 8.32508C18.1751 7.55008 17.9334 6.82508 17.5084 6.25841M15.0001 5.00008C14.4917 5.00008 14.0251 4.70841 13.7917 4.25841L13.1917 3.05008C12.8084 2.29175 11.8084 1.66675 10.9584 1.66675H9.05006C8.19172 1.66675 7.19172 2.29175 6.80839 3.05008L6.20839 4.25841C5.97506 4.70841 5.50839 5.00008 5.00006 5.00008C3.19172 5.00008 1.75839 6.52508 1.87506 8.32508L2.30839 15.2084C2.35006 15.8917 2.52506 16.5334 2.86672 17.0501" stroke="#4B360C" stroke-width="1.5" stroke-linecap="round" stroke-linejoin="round"/>
<path d="M8.33341 14.4251C8.79175 14.7834 9.37508 15.0001 10.0001 15.0001C11.4917 15.0001 12.7084 13.7834 12.7084 12.2917C12.7084 11.7584 12.5584 11.2667 12.2917 10.8501M18.3334 1.66675L1.66675 18.3334" stroke="#4B360C" stroke-width="1.5" stroke-linecap="round" stroke-linejoin="round"/>
</g>
<defs>
<clipPath id="clip0_92_401">
<rect width="20" height="20" fill="white"/>
</clipPath>
</defs>
</svg>
