<svg width="20" height="20" viewBox="0 0 20 20" fill="none" xmlns="http://www.w3.org/2000/svg">
<path d="M10.0001 12.9167C11.8417 12.9167 13.3334 11.4251 13.3334 9.58341V5.00008C13.3334 3.15841 11.8417 1.66675 10.0001 1.66675C8.15841 1.66675 6.66675 3.15841 6.66675 5.00008V9.58341C6.66675 11.4251 8.15841 12.9167 10.0001 12.9167Z" stroke="#4B360C" stroke-width="1.5" stroke-linecap="round" stroke-linejoin="round"/>
<path d="M3.625 8.04168V9.45835C3.625 12.975 6.48333 15.8334 10 15.8334M10 15.8334C13.5167 15.8334 16.375 12.975 16.375 9.45835V8.04168M10 15.8334V18.3334M8.84167 5.35835C9.59167 5.08335 10.4083 5.08335 11.1583 5.35835M9.33333 7.12502C9.775 7.00835 10.2333 7.00835 10.675 7.12502" stroke="#4B360C" stroke-width="1.5" stroke-linecap="round" stroke-linejoin="round"/>
</svg>
